<?xml version="1.0" encoding="utf-8"?>
<!-- Generator: Adobe Illustrator 27.5.0, SVG Export Plug-In . SVG Version: 6.00 Build 0)  -->
<svg version="1.1" id="Layer_1" xmlns="http://www.w3.org/2000/svg" xmlns:xlink="http://www.w3.org/1999/xlink" x="0px" y="0px"
	 viewBox="0 0 360 530.4" style="enable-background:new 0 0 360 530.4;" xml:space="preserve">
<style type="text/css">
	.st0{fill:#5E5F02;}
</style>
<path d="M274.98,362.29c4.43-0.32,8.87-0.08,13.31-0.15c3.37,0.07,6.75-0.12,10.11,0.02c2.39,0.06,4.54,1.42,6.1,3.16
	c1.31,1.35,1.41,3.76,0.11,5.16c-1.66,1.94-4.01,3.54-6.68,3.34c-7.65-0.07-15.3,0.07-22.95-0.09
	C274.88,369.92,274.89,366.1,274.98,362.29 M221.71,362.46c1.5-0.41,3.07-0.36,4.61-0.35c4.48,0.08,8.97,0.03,13.46,0
	c1.5,0.05,3.19,0,4.43,0.99c1.77,1.43,3.13,3.57,2.97,5.92c-0.09,4.82,0.01,9.65-0.03,14.47c0.07,2.09-1.71,3.53-3.25,4.62
	c-3.2,2.18-7.26,1.03-10.86,1.27c-4.21-0.27-8.83,0.96-12.66-1.35c-3.2-1.84-4.13-5.94-3.89-9.38c0.23-3.32-0.35-6.68,0.32-9.95
	C217.64,366.19,218.86,363.16,221.71,362.46 M106.6,362.25c7.07-0.26,14.14,0.01,21.21-0.14c1.92,0.05,4.17-0.21,5.67,1.24
	c1.21,1.17,2.38,2.58,2.7,4.27c-0.03,2.61-1.67,5.1-3.93,6.36c-1.94,1.06-4.23,0.87-6.36,0.86c-6.41-0.21-12.83,0.11-19.25-0.1
	C106.38,370.58,106.45,366.41,106.6,362.25 M53.51,362.43c1.68-0.4,3.41-0.32,5.12-0.32c4.17,0.08,8.33,0.02,12.5,0
	c1.53,0.05,3.2,0.01,4.54,0.89c1.89,1.37,3.27,3.61,3.07,6.02c-0.08,4.82,0,9.65-0.03,14.47c0.15,2.17-1.73,3.62-3.32,4.73
	c-1.92,1.41-4.41,1.23-6.66,1.21c-3.85-0.1-7.7,0.01-11.55,0c-3.08-0.02-6.59-1.27-7.93-4.28c-1.59-2.88-0.94-6.26-1.02-9.38
	c0.09-3.02-0.53-6.24,0.87-9.05C49.91,364.77,51.27,362.8,53.51,362.43 M262.48,349.9c0.05,17.25,0.05,34.5,0,51.75
	c4.15,0.15,8.29,0.12,12.44,0.03c0.2-5.06-0.12-10.12,0.07-15.18c7.53,0.06,15.05-0.06,22.58,0.07c2.14,5.13,4.85,10,7.19,15.05
	c4.65,0.23,9.31,0.12,13.96,0.07c-0.21-3.49-2.22-6.41-3.69-9.46c-1.48-3.08-3.15-6.08-4.43-9.26c3.13-1.61,4.65-4.93,6.36-7.83
	c1.34-2.28,0.94-5.01,1.01-7.53c-0.04-2.01,0.21-4.12-0.67-6c-0.73-1.64-1.56-3.22-2.46-4.77c-1.27-2.21-3.53-3.54-5.58-4.92
	c-3.05-2.03-6.88-2.06-10.41-2.14C286.73,349.91,274.61,349.68,262.48,349.9 M94.1,349.86c-0.21,6.23-0.03,12.47-0.08,18.7
	c0.06,11.04-0.12,22.08,0.08,33.11c4.15,0.08,8.3,0.12,12.44-0.04c0.03-4.73-0.22-9.47,0.12-14.19c5.13,0.01,10.26,0.03,15.39,0.01
	c2.96-0.04,5.97,0.33,8.88-0.4c2.81-0.66,5.91-0.44,8.4-2.1c4.06-2.55,7.27-6.37,9.12-10.78c0.23,2.6,0.24,5.22,0.19,7.84
	c-0.01,6.54,0.01,13.08-0.03,19.63c4.14,0.16,8.29,0.12,12.43,0.03c0.21-6.66,0.02-13.32,0.08-19.98
	c7.52-0.02,15.05,0.08,22.57-0.02c0.58-4.19,0.24-8.42,0.24-12.62c-7.6-0.38-15.21-0.06-22.81-0.15c-0.04-2.3-0.04-4.6,0-6.89
	c14.67,0.06,29.34-0.01,44.01,0.03c-0.71,2.11-1.2,4.3-1.14,6.53c0.08,4.8,0.07,9.61,0,14.41c-0.07,3.44,0.86,6.98,2.97,9.74
	c1.43,1.91,2.72,4.04,4.82,5.29c1.99,1.22,3.96,2.74,6.37,2.98c3.66,0.44,7.34,0.9,11.04,0.75c5.83-0.13,11.77,0.44,17.49-0.98
	c4.26-1.44,8.11-4.18,10.67-7.9c1.59-2.68,2.39-5.81,2.33-8.92c-0.08-6.09-0.06-12.18,0-18.27c0.1-3.47-1.78-6.64-4.08-9.09
	c-1.81-1.88-3.58-3.93-5.99-5.06c-3.2-1.54-6.83-1.73-10.32-1.74c-3.2,0.02-6.4,0.03-9.61,0.03c-4.02,0.02-8.09-0.25-12.06,0.5
	c-2.86,0.47-5.13,2.42-7.36,4.13c-2.25,1.71-3.54,4.27-4.86,6.7c-0.73-3.71-0.28-7.5-0.36-11.25c-7.96-0.21-15.93-0.03-23.89-0.09
	c-10.84,0.06-21.69-0.12-32.54,0.08c-0.13,4.42,0.45,8.87-0.37,13.25c-1.81-6.3-7.03-11.52-13.47-12.99
	c-1.82-0.38-3.68-0.37-5.52-0.37C117.53,349.88,105.82,349.72,94.1,349.86 M51.12,350.03c-3.86,0.2-7.09,2.53-9.92,4.95
	c-3.34,3.06-5.21,7.61-5.18,12.13c-0.01,4.65,0.05,9.3,0,13.95c-0.01,2.18-0.09,4.38,0.27,6.54c0.45,3.6,3.07,6.36,5.3,9.02
	c2.71,2.12,5.76,4.32,9.33,4.52c3.2,0.36,6.4,0.73,9.62,0.61c4.56-0.15,9.14,0.25,13.68-0.3c5.14-0.3,10-2.97,13.35-6.82
	c2.54-2.71,3.67-6.53,3.6-10.2c-0.08-6.42-0.05-12.84,0-19.26c0.09-3.13-1.6-5.97-3.62-8.24c-2.16-2.34-4.45-4.79-7.53-5.88
	c-5.31-1.94-11.06-1.07-16.59-1.24C59.33,349.9,55.21,349.57,51.12,350.03 M179.89,136.11c-1.78,4.6-3.2,9.34-4.86,13.99
	c-6.93,20.32-13.88,40.64-20.9,60.92c-7.33,0.25-14.68,0.28-22-0.19c-6.56-0.18-13.15,0.31-19.69-0.35
	c-4.48-0.25-8.97-0.02-13.46-0.1c-9.16-0.18-18.32,0.16-27.47-0.26c2.67,2.36,5.78,4.13,8.69,6.18
	c18.88,12.64,37.49,25.69,56.43,38.24c0.98,0.74,2.21,1.37,2.7,2.57c-0.31,1.88-1.16,3.62-1.78,5.41
	c-6.61,18.06-13.23,36.11-19.83,54.16c-1.53,4.55-3.46,8.96-4.83,13.56c3.49-1.68,6.48-4.19,9.71-6.3
	c8.21-5.53,16.23-11.31,24.43-16.85c8.35-5.56,16.58-11.3,24.84-16.98c3.09-2.1,6.05-4.4,9.3-6.27c4.25,2.62,8.16,5.74,12.26,8.57
	c14.86,10.43,29.65,20.93,44.45,31.45c3.16,2.16,6.14,4.6,9.52,6.4c-1.78-5.8-3.97-11.47-5.9-17.22
	c-6.69-19.3-13.45-38.58-20.14-57.89c1.53-1.25,3.14-2.42,4.83-3.45c8.47-5.64,17.02-11.15,25.49-16.78
	c7.66-5.18,15.39-10.25,23.14-15.3c4.73-3.13,9.62-6.03,14.07-9.57c-4.2-0.64-8.4,0.17-12.6,0.29c-23.95-0.04-47.9,0.01-71.85-0.03
	c-1.26-5.1-3.16-10.01-4.72-15.02c-6.4-19.67-12.85-39.34-19.23-59.01C180.34,136.23,180.04,136.15,179.89,136.11 M170.72,39.15
	c2.9-5.27,4.63-11.13,7.97-16.15c1.11,0.82,2.36,1.59,3.07,2.82c2.79,5.07,4.2,10.82,7.43,15.66c1.85,3.07,4.64,5.41,6.48,8.49
	c4.24,5.27,9.54,9.89,15.91,12.39c1,0.49,2.38,0.91,2.61,2.17c0.64,2.81-0.26,5.69,0.24,8.51c0.45,2.45,1.11,4.85,1.6,7.29
	c0.73,3.61,2.17,7.01,3.57,10.4c1.29,2.94,2.66,5.89,4.63,8.45c1.38,1.81,2.52,3.86,4.33,5.29c1.42,1.13,2.82,2.3,4.22,3.45
	c2.7,2.22,6.31,3.1,8.76,5.67c1.38,1.45,1.34,3.59,1.77,5.42c0.93,4.18,1.61,8.48,3.47,12.37c2.59,6.39,6.02,12.53,10.69,17.65
	c3.89,3.77,8.99,5.83,13.64,8.47c1.16,0.74,2.69,1.55,2.78,3.1c0.15,2.54-0.26,5.09-0.12,7.63c0,3.08,1.42,5.93,1.62,8.99
	c0.2,2.9,1.22,5.65,2.34,8.3c1.3,2.96,2.23,6.12,3.99,8.86c3.11,4.84,6.4,9.56,10.17,13.91c4.31,4.67,9.04,8.91,13.37,13.55
	c0.64,0.71,1.22,1.56,1.23,2.56c0.18,2.56-0.1,5.13,0.07,7.69c0.12,2.6,0.99,5.09,1.26,7.68c0.49,6.22,3.54,11.84,6.57,17.16
	c2.78,3.89,6.53,6.94,9.83,10.38c2.56,2.7,6.23,4.3,8.24,7.52c0.73,2.49,0.38,5.24-0.49,7.66c-1.34,3.4-2.31,6.93-3.45,10.4
	c-0.53,2.8-0.85,5.64-1.76,8.36c-0.96,7.52,1.43,15.16,5.43,21.49c3,4.01,5.67,8.32,9.38,11.74c2.38,2.1,3.96,5.27,3.68,8.48
	c-0.19,1.82-1.77,2.95-2.99,4.13c-3.85,3.7-8.1,7.26-10.36,12.22c-1.24,2.93-2.46,6-2.38,9.23c0.08,3.3-0.31,6.7,0.84,9.86
	c1.22,4.5,3.14,8.74,4.63,13.15c0.65,1.95,0.93,4.13,0.27,6.11c-1.33,1.48-3.3,2.21-5.22,2.56c-3.49,0.55-6.92,1.47-10.22,2.72
	c-4.14,2.12-6.3,6.53-8.07,10.62c-0.9,1.89-1.35,4.28-3.29,5.43c-1.18,0.77-2.43-0.35-3.57-0.68c-5.53-2.42-11.64-2.66-17.51-3.66
	c-3.36-0.54-6.78-0.29-10.17-0.34c-2.87-0.14-5.32,1.68-8.14,1.84c-4.43,0.38-8.74,1.91-12.45,4.33c-2.23,1.37-4.57,2.72-6.13,4.9
	c-1.78,2.46-3.76,4.97-4.37,8.03c-0.5,2.09-0.8,4.26-0.41,6.39c0.46,2.57-0.72,5.18,0.12,7.72c0.92,3.09,1.54,6.36,3.41,9.06
	c1.3,1.85,2.15,4.29,4.37,5.26c2.51,1.11,4.91,2.83,7.75,2.85c3.86,0.17,7.72-0.29,11.56-0.54c2.55-0.15,4.96-1.05,7.37-1.84
	c-0.41,3.17-1.19,6.32-0.96,9.54c0.22,3.67,0.52,7.36,0.22,11.03c-0.1,0.87-0.36,2.15-1.45,2.21c-2.36,0.2-4.74,0.02-7.1,0.05
	c-3.41,0.05-6.85-1.12-10.2-0.06c-5.1,1.14-9.53,4.04-13.63,7.17c-2.66,2.01-5.77,4.11-9.29,3.47c-6.71-1.29-13.96-1.8-20.39,0.93
	c-2.77,1.12-5.47,2.43-7.97,4.06c-2.67,1.75-4.25,4.77-7.01,6.39c-3.14,1.29-6.37-1-9.54-0.06c-2.85,0.65-5.89,0.78-8.52,2.2
	c-2.6,1.22-4.55,3.41-6.31,5.61c-5.63-4.48-12.53-7.36-19.68-8.11c-2.12-0.06-4.29,1.38-6.33,0.32c-2.21-1.38-3.49-3.82-5.69-5.22
	c-3.17-1.99-6.64-3.44-10.05-4.97c-2.24-1.04-4.76-1.14-7.08-1.92c-1.87-0.61-3.81-1.28-5.81-1.07c-2.37,0.14-4.4,1.66-6.76,1.86
	c-1.88,0.04-3.75-0.2-5.63-0.18c-0.88-0.07-1.89,0.08-2.62-0.53c-1.95-1.55-3.38-3.68-5.49-5.04c-1.41-0.91-3.09-1.16-4.68-1.57
	c-1.98-0.43-3.96-1.23-6.02-0.97c-1.32,0.06-2.69,0.51-3.96-0.01c-1.68-0.62-3.31-1.54-5.15-1.48c-2.45,0.06-4.91-0.08-7.28-0.74
	c0.25-3.33,1.6-6.46,1.83-9.79c0.7-3.11-0.15-6.22-0.44-9.31c-0.16-1.52-0.48-3.01-0.88-4.47c1.6-0.44,3.33-0.39,4.96-0.06
	c4.41,0.79,8.84,1.6,13.32,1.7c1.61,0.09,3.14-0.49,4.52-1.26c2.36-1.3,4.74-2.58,6.94-4.15c1.9-1.29,2.42-3.68,3.69-5.47
	c2.66-3.69,3.14-8.57,2.33-12.93c-0.75-3.16-1.49-6.44-3.35-9.16c-1.45-2.18-2.99-4.38-5.21-5.82c-3.1-2.5-6.54-4.55-10.15-6.2
	c-3.21-0.85-6.46-1.61-9.71-2.31c-2.14-0.45-4.12-1.56-6.34-1.61c-2.74-0.09-5.47-0.01-8.21-0.04c-3.11-0.08-5.94,1.36-8.94,1.95
	c-2.27,0.45-4.47,1.2-6.64,2c-2.14,0.8-4.45,0.86-6.71,0.99c-0.98-3.63-2.83-6.94-4.87-10.08c-1.55-2.34-3.95-3.88-6.31-5.29
	c-2.6-1.63-5.71-1.96-8.59-2.86c-1.74-0.6-3.72-0.49-5.32-1.43c-0.85-2.81,0.48-5.51,1.72-7.95c0.75-2.49,1.96-4.83,2.48-7.39
	c0.65-2.54,2.29-4.85,2.06-7.56c-0.12-3.19,0.42-6.51-0.77-9.55c-1.05-2.78-1.54-5.81-3.23-8.31c-2.92-4.82-8.05-7.7-11.4-12.13
	c-0.69-2.76-0.87-6.26,1.28-8.46c1.73-1.96,3.68-3.72,5.18-5.87c2.47-3.58,5.84-6.52,7.74-10.5c2.02-3.22,2.7-6.99,3.73-10.58
	c0.45-2.67,0.48-5.51-0.37-8.11c-1.04-2.76-0.77-5.78-1.77-8.56c-0.63-4.05-2.86-7.6-3.62-11.6c-0.17-2.09-0.13-4.21,0.11-6.29
	c0.1-1.11,1-1.86,1.72-2.6c2.84-2.61,5.64-5.29,8.68-7.66c4.23-3.18,7.48-7.48,10.2-11.96c1.7-2.59,2.25-5.67,3.52-8.46
	c0.84-1.66,0.55-3.55,0.64-5.33c0.06-2.95,1.32-5.71,1.35-8.66c0.15-2.2-0.29-4.43,0.13-6.61c0.9-2.36,2.53-4.39,4.31-6.15
	c4.58-4.22,8.81-8.8,13.17-13.24c3.71-3.85,6.36-8.55,8.99-13.17c1.78-3,2.63-6.4,3.72-9.69c0.56-1.77,0.68-3.64,0.79-5.48
	c0.1-2.01,1.21-3.77,1.54-5.73c0.42-3.57-0.42-7.22,0.28-10.76c1.09-3.19,4.62-4.08,7.23-5.63c2.67-1.66,5.72-2.77,8.01-4.98
	c2.63-2.55,5.36-5.11,6.99-8.45c4.09-6.14,6.72-13.19,7.87-20.46c0.56-2.22,0.37-4.78,1.92-6.62c2.45-3.2,6.19-4.92,9.51-7.01
	c2.12-1.3,3.87-3.08,5.66-4.78c2.36-2.05,3.83-4.86,5.45-7.48c2.3-4.41,4.24-9.09,5.02-14.03c0.3-1.86,1.38-3.5,1.54-5.39
	c0.31-3.57-0.14-7.15-0.08-10.72c-0.04-1.27,1.15-2.01,2.12-2.57c2.73-1.48,5.82-2.31,8.3-4.25
	C160.38,53.43,166.2,46.68,170.72,39.15 M175.38,14.95c-2.28,4.89-4.41,9.86-7,14.6c-1.21,2.23-2.95,4.1-4.42,6.16
	c-2.95,4.17-6.5,7.92-10.38,11.24c-2.9,2.46-6.5,3.79-9.79,5.61c-1.22,0.76-2.75,1.64-2.85,3.25c-0.45,4.3,0.48,8.7-0.6,12.94
	c-0.74,2.83-0.84,5.82-1.92,8.57c-2.57,7.39-6.33,14.75-12.55,19.72c-3.37,2.82-7.69,4.32-10.74,7.55
	c-3.58,3.23-3.64,8.44-4.58,12.83c-2.3,8.27-5.47,16.64-11.46,22.98c-2.68,3.07-6.21,5.2-9.85,6.93c-2.39,1.22-4.92,2.34-6.83,4.29
	c-1.58,1.6-1.71,3.97-2.23,6.03c-1.1,4.43-0.23,9.02-0.85,13.5c-1.47,10.8-7.16,20.48-13.93,28.8c-1.54,1.67-3.25,3.18-4.71,4.92
	c-3.16,3.87-7.25,6.82-10.64,10.48c-1.86,2.05-3.06,4.67-3.57,7.38c-0.38,2.62-0.04,5.28-0.31,7.91c-0.22,2.09-0.34,4.18-0.36,6.27
	c0.04,2.36-1.08,4.5-1.63,6.75c-0.86,3.74-2.95,7.05-5.16,10.14c-2.09,2.54-3.85,5.41-6.52,7.41c-2.71,2.08-5.19,4.43-7.77,6.66
	c-1.72,1.55-3.59,3.14-4.33,5.42c-1.35,3.33-0.04,6.95,0.74,10.25c1.78,4.31,2.82,8.88,3.84,13.42c0.23,2.94,0.95,5.81,1.27,8.73
	c-0.37,5.12-1.68,10.23-4.28,14.69c-1.94,3.81-5.16,6.69-7.66,10.09c-1.3,1.73-2.77,3.31-4.26,4.87c-0.85,0.96-1.87,1.99-1.89,3.37
	c-0.12,2.4-0.15,4.81,0.04,7.21c0.08,1.23,1.02,2.12,1.83,2.95c2.31,2.19,4.89,4.1,6.9,6.58c2.48,3.09,4.57,6.6,5.43,10.51
	c1.3,4.19,2.06,8.78,0.66,13.05c-1.17,4.68-2.82,9.22-4.76,13.64c-1.37,2.7-1.31,5.9-0.72,8.79c0.86,1.26,2.51,1.81,3.91,2.29
	c3.78,0.89,7.73,1.18,11.37,2.6c3.94,1.73,5.99,5.79,7.81,9.44c1.27,2.49,1.73,5.4,3.42,7.66c2.27,2.06,5.71,1.29,8.26,0.21
	c4.44-1.97,9.26-2.79,13.88-4.21c6.42-1.13,12.9,0.41,19.33,0.53c2.19,0.19,4.13,1.34,6.2,1.98c4.04,1.3,7.76,3.52,11.01,6.23
	c3.48,3.06,5.27,7.54,6.24,11.97c0.41,3.36,0.36,7-1.35,10.03c-1.11,2.02-1.91,4.39-3.85,5.8c-1.81,1.3-3.76,2.41-5.78,3.36
	c-2.39,1.15-5.12,1.08-7.71,0.95c-5.61-0.21-10.53-3.91-16.23-3.4c-0.83,1.6-1.98,3.12-2.26,4.94c-0.16,3.41,2.44,6.14,2.77,9.47
	c0.79,4.79-0.87,9.47-1.76,14.12c-0.55,2.34,0.85,4.44,1.82,6.45c2.81,0.49,5.66,0.52,8.49,0.19c2.42-0.37,4.13,1.82,6.4,2.14
	c1.39,0.09,2.77-0.2,4.16-0.23c2.2-0.12,4.3,0.68,6.39,1.23c1.74,0.52,3.61,0.97,4.98,2.23c1.75,1.61,3.02,3.73,5.07,5.01
	c0.65,0.49,1.47,0.12,2.18,0.02c1.77-0.44,3.6-0.59,5.42-0.57c2.65,0.06,5.02-1.44,7.65-1.5c1.84-0.04,3.64,0.45,5.43,0.85
	c2.33,0.54,4.74,0.84,6.93,1.86c1.88,0.87,3.8,1.68,5.65,2.62c2.97,1.55,4.96,4.32,7.25,6.67c0.98,0.98,2.12,2.03,3.6,2.07
	c2.71,0.12,5.3-1.48,8.01-0.71c3.72,1.02,7.71,1.36,11.14,3.26c1.8,0.98,2.78,2.86,3.69,4.61c1.42,0,2.84,0.01,4.27,0.03
	c0.8-1.3,1.61-2.66,2.9-3.54c3.94-2.59,8.53-4.25,13.25-4.54c2.26,0.14,4.42,1.23,6.72,0.87c2.17-0.2,3.73-1.91,5.12-3.41
	c2.5-2.85,5.39-5.57,9.02-6.85c2.14-0.78,4.22-1.71,6.38-2.44c1.89-0.68,3.93-0.4,5.89-0.37c2.25,0.07,4.51-0.25,6.76,0.1
	c3.13,0.43,6.44,0.94,9.52-0.02c2.94-1.36,5.29-3.69,8.01-5.4c3.8-2.74,8.25-4.45,12.85-5.3c2.7-0.51,5.35,0.55,8.04,0.66
	c2.7,0.11,5.41,0.07,8.09,0.39c0.71-2.6,2.09-5.25,1.48-8.01c-0.34-1.74-0.58-3.51-0.47-5.29c0.14-2.88-0.07-5.77,0.06-8.64
	c0.05-2.1,1.84-3.67,1.94-5.76c0.07-1.36,0.15-2.79-0.33-4.08c-1.29-1.24-2.9-2.19-4.6-2.72c-3.79,0.43-6.58,3.88-10.48,3.92
	c-5.45,0.18-11.8,0.4-15.95-3.8c-2.77-2.13-3.28-5.75-4.75-8.7c-1.29-2.54-1.01-5.46-0.99-8.2c-0.03-2.86,1.57-5.34,2.81-7.81
	c1.84-3.48,4.89-6.13,8.22-8.13c4.45-2.89,9.75-3.9,14.88-4.85c4.19-1.51,8.69-1.41,13.08-1.29c2.59,0.12,4.83,1.57,7.27,2.27
	c1.63,0.5,3.34,0.58,5.02,0.85c2.55,0.4,4.84,1.71,7.35,2.26c1.77,0.42,3.84,0.74,5.36-0.53c3.04-2.2,3.29-6.29,5.15-9.3
	c1.84-2.95,3.83-6.22,7.23-7.56c2.8-1.1,5.68-2.12,8.72-2.31c2.57-0.19,5.22-1.28,6.79-3.39c0.85-1.81,0.69-4.01-0.15-5.8
	c-1.12-2.39-2.07-4.87-3.26-7.23c-1.13-2.21-1.34-4.72-2.06-7.06c-0.77-2.39-0.45-4.92-0.48-7.38c0.03-2.17-0.26-4.39,0.4-6.49
	c0.77-2.47,1.32-5.1,2.83-7.26c1.45-2.17,2.94-4.35,4.89-6.1c2.64-2.46,5.73-4.61,7.63-7.73c0.63-2.9,0.65-6.37-1.4-8.75
	c-2.34-2.93-5.11-5.46-7.57-8.27c-3.61-4.67-7.43-9.5-8.74-15.39c-1.45-4.13-1.87-8.68-0.61-12.91c0.84-2.45,0.43-5.15,1.46-7.55
	c0.71-1.69,1.17-3.46,1.58-5.25c0.71-3.21,2.89-6.01,2.77-9.41c-0.07-2.24,0.37-4.87-1.23-6.69c-3.19-3.75-7.56-6.18-11.06-9.59
	c-4.59-4.53-9.14-9.45-11.32-15.63c-1.05-2.62-1.86-5.34-2.03-8.17c-0.22-3.83-1.83-7.46-1.71-11.32c-0.04-2.34,0.34-4.7-0.11-7.01
	c-0.91-2.93-3.64-4.65-5.76-6.64c-4.92-4.85-9.94-9.65-14.09-15.19c-3.7-4.26-6.27-9.33-8.69-14.38c-1.44-3.25-2.42-6.7-2.88-10.22
	c-0.23-2.06-0.98-3.98-1.47-5.97c-0.83-4.29,0.3-8.72-0.49-13c-1.66-4.07-6.18-5.61-9.77-7.52c-6.62-2.92-11.64-8.6-14.79-15
	c-2.14-4.53-4.23-9.18-5.09-14.16c-0.44-2.6-1.43-5.08-1.86-7.68c-0.25-1.36-0.56-2.79-1.48-3.86c-2.13-2.64-5.22-4.18-8.02-5.98
	c-5.55-3.41-10.21-8.28-13.22-14.06c-0.91-2.06-1.61-4.21-2.55-6.26c-1.07-2.27-1.12-4.84-1.97-7.17c-0.49-1.45-1.23-2.85-1.34-4.4
	c-0.23-4.13,0.23-8.27-0.1-12.39c-0.2-2.06-2.29-2.96-3.93-3.73c-3.86-1.67-7.53-3.8-10.8-6.44c-3.74-3.19-6.56-7.25-9.59-11.07
	c-1.48-1.93-2.72-4.03-3.93-6.12c-1.57-2.62-2.21-5.66-3.7-8.32c-1.28-2.27-2.07-4.82-3.67-6.9c-0.91-1.23-2.49-1.83-3.98-1.69
	C176.78,12.04,176.04,13.65,175.38,14.95 M177.13,2.26c0.79-1.39,2.43-2.14,3.9-1.26c2.65,1.99,3.45,5.38,4.97,8.16
	c1.5,2.75,2.27,5.84,3.93,8.51c1.37,2.32,2.71,4.66,4.24,6.88c4.67,5.81,9.31,11.97,15.96,15.66c2.52,1.41,5.28,2.33,7.73,3.85
	c1.06,0.68,2.03,1.76,1.99,3.1c0.13,3.85-0.08,7.7-0.01,11.55c-0.06,2.86,1.7,5.29,2.1,8.06c0.58,3.51,2.15,6.71,3.61,9.92
	c2.35,5.55,6.28,10.34,11.14,13.91c3.71,2.9,8.43,4.51,11.47,8.24c1.69,2.03,1.85,4.77,2.46,7.23c1.32,4.58,1.87,9.39,3.9,13.75
	c1.55,3.77,3.23,7.5,5.51,10.89c2.59,3.6,5.86,6.72,9.58,9.12c3.11,1.72,6.35,3.2,9.41,5.02c2.23,1.43,4.47,3.69,4.34,6.54
	c0.04,4.97-0.46,10.05,1.07,14.87c0.76,4.26,1.56,8.53,3.41,12.48c2.24,5.07,4.74,10.08,8.17,14.47c3.24,3.8,6.4,7.67,9.85,11.29
	c3.23,3.18,6.71,6.1,9.89,9.34c1.11,1.24,2.25,2.65,2.43,4.37c0.35,3.96-0.45,8.02,0.55,11.93c0.62,2.73,1.03,5.51,1.38,8.28
	c0.93,6.15,4.15,11.64,7.85,16.52c3.88,4.76,8.68,8.66,13.46,12.46c1.56,1.32,3.2,2.58,4.46,4.21c1.39,1.75,0.97,4.13,1.02,6.21
	c0.12,2.53-1.32,4.69-2.19,6.97c-1.05,2.47-1.55,5.12-2.37,7.67c-0.71,2.1-0.8,4.33-1.32,6.48c-1.33,4.9-1.67,10.31,0.17,15.12
	c1.09,4.14,2.83,8.14,5.5,11.52c1.98,2.5,3.72,5.2,5.97,7.48c2.76,2.94,5.82,5.72,7.71,9.34v5.26c-1.82,1.95-3.56,4.01-5.72,5.59
	c-3.46,2.49-5.97,6.02-8.3,9.53c-1.23,1.76-1.62,3.9-2.31,5.9c-0.89,2.6-0.58,5.38-0.61,8.08c0.04,2.38-0.18,4.78,0.18,7.15
	c1.36,6.1,4.37,11.65,6.55,17.47c0.21,0.97,0.28,2.06-0.13,2.99c-1.52,2.56-4.51,3.98-7.44,4.01c-2.97,0.07-5.7,1.33-8.51,2.14
	c-4.81,1.57-7.44,6.37-9.48,10.65c-1.34,2.56-1.69,6.17-4.63,7.47c-2.28,1.23-4.78-0.19-7.12-0.5c-2.47-0.74-5.23,0.04-7.58-1.11
	c-3.56-1.97-7.73-2.22-11.68-2.66c-4.74-0.02-9.54-0.36-14.22,0.55c-7.55,0.86-15.07,3.94-20.41,9.47
	c-2.37,2.71-4.12,5.95-5.47,9.28c-0.11,2.2,1.22,4.16,2.26,6c1.02,1.64,1.49,3.56,2.55,5.18c1.08,0.96,2.43,1.55,3.76,2.06
	c1.78,0.7,3.71,0.23,5.56,0.25c2.41-0.11,4.89,0.19,7.21-0.61c2.07-0.64,3.99-1.9,6.23-1.86c2.16-0.02,4.37-0.21,6.52,0.22
	c2.65,1.1,4.4,4.01,4.11,6.88c-0.19,3.45,0.67,6.88,0.23,10.32c-0.41,5.21-1.02,10.43-0.65,15.67c0.49,4.02-1.02,7.87-1.88,11.73
	c-3.57,0.02-7.16,0.09-10.69-0.56c-3.07-0.58-6.28-0.67-9.29,0.29c-6.52,1.53-11.85,5.77-17.22,9.51c-2.83,2.07-6.52,1.49-9.78,1.21
	c-3.37-0.79-6.81,0.05-10.2-0.43c-0.88-0.08-1.76-0.34-2.64-0.19c-3.14,0.72-6.06,2.11-9.05,3.27c-2.41,0.95-4.7,2.26-6.64,4
	c-2.26,2.22-4,5.21-7.1,6.38c-1.98,0.82-4.1,0.08-6.03-0.5c-1.69-0.58-3.44,0.01-5.11,0.34c-1.82,0.4-3.73,0.53-5.43,1.35
	c-2.15,0.98-4.5,1.74-6.24,3.41c-1.07,0.98-1.81,2.25-2.65,3.42h-3.25c-0.92-1.5-1.55-3.36-3.16-4.27c-2.83-1.67-5.98-2.8-9.21-3.35
	c-2.23-0.34-4.39-1.43-6.69-1.05c-2.01,0.24-3.97,1.22-6.02,0.87c-4.15-1.72-5.95-6.37-9.83-8.49c-3.01-1.61-6.13-3.07-9.4-4.08
	c-4.74-1.11-9.72-2.96-14.57-1.3c-2.87,1.1-5.99,0.74-8.98,1.16c-0.9,0.07-1.84,0.25-2.72,0c-2.3-1.31-3.88-3.5-5.85-5.2
	c-2.46-1.79-5.56-2.21-8.4-3.07c-2.49-0.77-5.08-0.02-7.62-0.17c-2.19-0.3-3.86-2.25-6.15-2.14c-3.03,0.07-6.06,0.13-9.1,0.11
	c-0.95-2-2.47-4.02-2.02-6.36c0.69-4.15,2.44-8.18,2.13-12.45c-0.23-2.04-0.27-4.17-1.16-6.06c-1.04-2.23-1.97-4.6-1.96-7.1
	c-0.05-2.63-0.31-5.31,0.21-7.91c0.4-2.4,2.6-3.97,4.72-4.82c2.08-0.77,4.42-1.54,6.6-0.73c3.24,1.11,6.6,2.01,10.05,2.05
	c1.97-0.01,3.82,0.71,5.76,0.91c2.61,0.24,4.93-1.27,7.07-2.56c1.61-0.86,1.86-2.85,2.31-4.44c0.4-2.37,1.43-4.71,0.92-7.15
	c-0.24-4.93-3.71-9-7.54-11.77c-4.08-3.09-9.02-4.62-13.78-6.3c-2.07-0.61-4.28-0.36-6.34-1c-4.15-1.53-8.63-0.69-12.94-0.91
	c-2.95-0.2-5.7,0.96-8.55,1.46c-5.01,0.82-9.44,3.71-14.49,4.33c-2.74,0.18-4.13-2.51-4.92-4.7c-1.66-4.04-3.51-8.11-6.42-11.41
	c-2.85-3.07-7.23-3.23-11-4.3c-2.68-0.46-5.56-0.66-7.81-2.36c-1.56-1.23-1.16-3.45-1.17-5.19c0.01-2.24,1.29-4.14,2.09-6.15
	c1.96-4.26,3.09-8.82,4.43-13.29c0.52-2.13,0.41-4.34,0.37-6.51c0-2.71-1.15-5.2-1.82-7.78c-1.46-5.61-5.21-10.33-9.57-14.01
	c-1.63-1.57-3.73-2.76-4.8-4.81c-0.48-1.82-0.3-3.72-0.33-5.58c0.08-1.23-0.07-2.63,0.78-3.64c1.72-2.26,3.78-4.24,5.55-6.46
	c2.41-3.04,5.24-5.75,7.26-9.07c2.31-3.65,4.34-7.63,4.87-11.97c0.31-2.32,1.06-4.64,0.68-6.99c-0.34-2.25-0.97-4.46-1.01-6.75
	c-0.05-2.58-1.26-4.92-1.71-7.44c-0.88-4.21-3.2-7.99-3.7-12.29c-0.74-2.33-0.16-4.83,0.88-6.96c2.18-2.92,5.29-4.93,7.92-7.41
	c2.12-2.06,4.45-3.88,6.57-5.93c4.29-4.61,8.3-9.77,9.95-15.96c0.49-2.1,1.6-4.05,1.69-6.23c0.09-2.17,0.15-4.33,0.44-6.48
	c0.49-3.71-0.37-7.57,0.9-11.16c1.17-4.39,4.89-7.29,8.04-10.26c3.32-2.93,6.18-6.31,9.33-9.42c2.54-2.48,4.57-5.4,6.64-8.27
	c6.28-8.98,10.48-19.75,10.12-30.83c-0.25-3.81,0.46-7.6,1.66-11.2c1.08-2.69,3.87-4.01,6.24-5.35c3.53-2.04,7.53-3.35,10.51-6.24
	c2.84-2.81,5.5-5.84,7.51-9.31c3.23-5.4,5.25-11.43,6.78-17.5c0.54-3.78,1.11-7.73,3.11-11.05c2.5-3.24,6.36-4.94,9.7-7.15
	c2.53-1.54,4.73-3.54,6.79-5.66c5.01-5.5,7.79-12.53,10.26-19.43c0.4-2.04,0.61-4.13,1.2-6.13c1.3-4.78,0.28-9.77,0.81-14.61
	c0.8-1.87,2.87-2.74,4.59-3.58c3.97-1.63,7.72-3.88,10.82-6.88c3.72-3.67,7.36-7.47,10.23-11.85
	C170.87,17.25,173.16,9.27,177.13,2.26"/>
<path class="st0" d="M274.98,362.29c-0.09,3.81-0.1,7.62,0,11.43c7.65,0.16,15.3,0.01,22.95,0.09c2.67,0.2,5.02-1.4,6.68-3.34
	c1.31-1.39,1.2-3.81-0.11-5.16c-1.56-1.74-3.7-3.1-6.1-3.16c-3.37-0.14-6.74,0.05-10.11-0.02
	C283.85,362.21,279.41,361.97,274.98,362.29 M262.48,349.9c12.13-0.22,24.25,0.01,36.38-0.11c3.53,0.08,7.36,0.11,10.41,2.14
	c2.05,1.38,4.31,2.7,5.58,4.92c0.89,1.55,1.73,3.13,2.46,4.77c0.87,1.87,0.63,3.99,0.67,6c-0.07,2.52,0.33,5.25-1.01,7.53
	c-1.71,2.89-3.22,6.21-6.36,7.83c1.29,3.18,2.95,6.17,4.43,9.26c1.46,3.05,3.48,5.97,3.69,9.46c-4.66,0.05-9.31,0.16-13.96-0.07
	c-2.34-5.04-5.04-9.92-7.19-15.05c-7.53-0.13-15.05-0.01-22.58-0.07c-0.19,5.06,0.13,10.12-0.07,15.18
	c-4.15,0.09-8.29,0.12-12.44-0.03C262.53,384.39,262.53,367.15,262.48,349.9 M221.71,362.46c-2.85,0.7-4.07,3.74-4.9,6.25
	c-0.67,3.27-0.09,6.64-0.32,9.95c-0.24,3.44,0.69,7.54,3.89,9.38c3.82,2.31,8.45,1.08,12.66,1.35c3.6-0.25,7.67,0.91,10.86-1.27
	c1.54-1.1,3.32-2.53,3.25-4.62c0.04-4.82-0.05-9.65,0.03-14.47c0.15-2.35-1.2-4.49-2.97-5.92c-1.24-0.99-2.93-0.95-4.43-0.99
	c-4.49,0.03-8.97,0.08-13.46,0C224.77,362.1,223.21,362.05,221.71,362.46 M106.6,362.25c-0.16,4.16-0.22,8.34,0.04,12.5
	c6.41,0.2,12.83-0.12,19.25,0.1c2.13,0.01,4.43,0.19,6.36-0.86c2.27-1.25,3.9-3.75,3.93-6.36c-0.33-1.7-1.5-3.1-2.7-4.27
	c-1.51-1.45-3.76-1.19-5.67-1.24C120.74,362.26,113.67,361.98,106.6,362.25 M94.1,349.86c11.72-0.14,23.44,0.02,35.16-0.08
	c1.84,0,3.7-0.02,5.52,0.37c6.43,1.47,11.66,6.69,13.47,12.99c0.82-4.37,0.24-8.83,0.37-13.25c10.84-0.2,21.69-0.02,32.54-0.08
	c7.96,0.05,15.93-0.12,23.89,0.09c0.08,3.75-0.37,7.53,0.36,11.25c1.32-2.43,2.61-4.99,4.86-6.7c2.22-1.71,4.5-3.67,7.36-4.13
	c3.98-0.76,8.04-0.48,12.06-0.5c3.2,0,6.4,0,9.61-0.03c3.49,0.01,7.12,0.2,10.32,1.74c2.4,1.13,4.18,3.18,5.99,5.06
	c2.3,2.45,4.18,5.62,4.08,9.09c-0.06,6.09-0.08,12.17,0,18.27c0.06,3.11-0.74,6.24-2.33,8.92c-2.56,3.72-6.4,6.47-10.67,7.9
	c-5.72,1.42-11.66,0.85-17.49,0.98c-3.7,0.15-7.38-0.32-11.04-0.75c-2.41-0.24-4.37-1.76-6.37-2.98c-2.1-1.26-3.39-3.39-4.82-5.29
	c-2.11-2.76-3.04-6.3-2.97-9.74c0.07-4.8,0.08-9.61,0-14.41c-0.06-2.23,0.43-4.43,1.14-6.53c-14.67-0.04-29.34,0.02-44.01-0.03
	c-0.04,2.3-0.04,4.59,0,6.89c7.6,0.1,15.21-0.23,22.81,0.15c0,4.2,0.35,8.43-0.24,12.62c-7.52,0.1-15.05,0-22.57,0.02
	c-0.06,6.66,0.13,13.32-0.08,19.98c-4.15,0.1-8.29,0.13-12.43-0.03c0.05-6.54,0.02-13.09,0.03-19.63c0.05-2.61,0.04-5.23-0.19-7.84
	c-1.85,4.42-5.06,8.24-9.12,10.78c-2.49,1.67-5.59,1.45-8.4,2.1c-2.91,0.73-5.92,0.36-8.88,0.4c-5.13,0.02-10.26,0-15.39-0.01
	c-0.35,4.72-0.1,9.46-0.12,14.19c-4.14,0.16-8.29,0.12-12.44,0.04c-0.2-11.04-0.02-22.08-0.08-33.11
	C94.07,362.33,93.89,356.1,94.1,349.86 M53.51,362.43c-2.24,0.37-3.6,2.34-4.42,4.29c-1.41,2.81-0.79,6.03-0.87,9.05
	c0.08,3.12-0.56,6.5,1.02,9.38c1.34,3,4.84,4.25,7.93,4.28c3.85,0.01,7.7-0.1,11.55,0c2.25,0.01,4.74,0.2,6.66-1.21
	c1.59-1.11,3.47-2.56,3.32-4.73c0.03-4.82-0.05-9.65,0.03-14.47c0.19-2.41-1.18-4.64-3.07-6.02c-1.34-0.88-3.01-0.85-4.54-0.89
	c-4.17,0.02-8.33,0.08-12.5,0C56.92,362.11,55.19,362.03,53.51,362.43 M51.12,350.03c4.09-0.46,8.21-0.13,12.32-0.22
	c5.53,0.18,11.27-0.7,16.59,1.24c3.08,1.09,5.37,3.54,7.53,5.88c2.02,2.26,3.7,5.11,3.62,8.24c-0.05,6.42-0.08,12.84,0,19.26
	c0.07,3.67-1.06,7.48-3.6,10.2c-3.35,3.85-8.21,6.52-13.35,6.82c-4.54,0.55-9.12,0.15-13.68,0.3c-3.22,0.12-6.43-0.25-9.62-0.61
	c-3.57-0.19-6.61-2.4-9.33-4.52c-2.23-2.66-4.86-5.41-5.3-9.02c-0.36-2.16-0.29-4.36-0.27-6.54c0.05-4.65-0.01-9.3,0-13.95
	c-0.03-4.52,1.84-9.07,5.18-12.13C44.03,352.56,47.26,350.23,51.12,350.03 M179.89,136.11c0.15,0.04,0.44,0.12,0.59,0.16
	c6.38,19.67,12.83,39.34,19.23,59.01c1.57,5.01,3.46,9.92,4.72,15.02c23.95,0.04,47.9-0.01,71.85,0.03c4.2-0.12,8.4-0.94,12.6-0.29
	c-4.44,3.53-9.34,6.44-14.07,9.57c-7.75,5.04-15.49,10.11-23.14,15.3c-8.48,5.63-17.02,11.14-25.49,16.78
	c-1.69,1.03-3.3,2.2-4.83,3.45c6.68,19.31,13.45,38.59,20.14,57.89c1.93,5.76,4.12,11.42,5.9,17.22c-3.39-1.8-6.37-4.24-9.52-6.4
	c-14.79-10.51-29.59-21.02-44.45-31.45c-4.1-2.83-8.01-5.95-12.26-8.57c-3.24,1.87-6.21,4.17-9.3,6.27
	c-8.26,5.69-16.5,11.42-24.84,16.98c-8.2,5.54-16.22,11.33-24.43,16.85c-3.23,2.11-6.21,4.62-9.71,6.3
	c1.37-4.6,3.31-9.01,4.83-13.56c6.6-18.06,13.22-36.11,19.83-54.16c0.61-1.79,1.47-3.53,1.78-5.41c-0.49-1.19-1.72-1.83-2.7-2.57
	c-18.94-12.55-37.55-25.6-56.43-38.24c-2.91-2.05-6.02-3.81-8.69-6.18c9.15,0.42,18.32,0.08,27.47,0.26
	c4.49,0.07,8.98-0.16,13.46,0.1c6.54,0.66,13.13,0.17,19.69,0.35c7.32,0.47,14.67,0.44,22,0.19c7.02-20.29,13.97-40.6,20.9-60.92
	C176.69,145.45,178.12,140.71,179.89,136.11 M170.72,39.15c-4.52,7.53-10.34,14.28-17.19,19.79c-2.47,1.94-5.57,2.76-8.3,4.25
	c-0.97,0.56-2.16,1.3-2.12,2.57c-0.06,3.57,0.39,7.15,0.08,10.72c-0.16,1.89-1.24,3.53-1.54,5.39c-0.78,4.94-2.72,9.62-5.02,14.03
	c-1.61,2.62-3.09,5.43-5.45,7.48c-1.79,1.7-3.53,3.48-5.66,4.78c-3.32,2.09-7.07,3.81-9.51,7.01c-1.55,1.84-1.36,4.4-1.92,6.62
	c-1.16,7.27-3.78,14.32-7.87,20.46c-1.63,3.34-4.35,5.9-6.99,8.45c-2.29,2.21-5.34,3.32-8.01,4.98c-2.61,1.55-6.14,2.44-7.23,5.63
	c-0.71,3.54,0.13,7.19-0.28,10.76c-0.33,1.96-1.44,3.72-1.54,5.73c-0.11,1.84-0.23,3.7-0.79,5.48c-1.09,3.28-1.94,6.69-3.72,9.69
	c-2.63,4.62-5.28,9.32-8.99,13.17c-4.36,4.44-8.6,9.01-13.17,13.24c-1.79,1.76-3.41,3.79-4.31,6.15c-0.43,2.18,0.02,4.41-0.13,6.61
	c-0.03,2.95-1.29,5.71-1.35,8.66c-0.1,1.78,0.19,3.67-0.64,5.33c-1.27,2.78-1.82,5.87-3.52,8.46c-2.72,4.49-5.97,8.78-10.2,11.96
	c-3.05,2.37-5.84,5.04-8.68,7.66c-0.73,0.74-1.63,1.49-1.72,2.6c-0.25,2.08-0.28,4.2-0.11,6.29c0.76,4.01,2.99,7.56,3.62,11.6
	c1,2.77,0.74,5.8,1.77,8.56c0.85,2.6,0.81,5.44,0.37,8.11c-1.03,3.59-1.71,7.37-3.73,10.58c-1.9,3.98-5.26,6.91-7.74,10.5
	c-1.5,2.15-3.45,3.91-5.18,5.87c-2.15,2.2-1.97,5.69-1.28,8.46c3.35,4.43,8.48,7.31,11.4,12.13c1.69,2.5,2.18,5.53,3.23,8.31
	c1.19,3.04,0.65,6.37,0.77,9.55c0.23,2.71-1.41,5.02-2.06,7.56c-0.52,2.56-1.73,4.9-2.48,7.39c-1.24,2.44-2.58,5.14-1.72,7.95
	c1.6,0.94,3.58,0.83,5.32,1.43c2.87,0.91,5.99,1.23,8.59,2.86c2.36,1.41,4.76,2.95,6.31,5.29c2.04,3.13,3.88,6.44,4.87,10.08
	c2.26-0.13,4.57-0.2,6.71-0.99c2.17-0.8,4.36-1.55,6.64-2c2.99-0.59,5.83-2.03,8.94-1.95c2.74,0.02,5.47-0.05,8.21,0.04
	c2.22,0.05,4.2,1.16,6.34,1.61c3.25,0.69,6.5,1.46,9.71,2.31c3.61,1.65,7.05,3.7,10.15,6.2c2.22,1.45,3.76,3.65,5.21,5.82
	c1.86,2.72,2.6,6,3.35,9.16c0.81,4.37,0.33,9.25-2.33,12.93c-1.27,1.79-1.79,4.18-3.69,5.47c-2.2,1.57-4.58,2.85-6.94,4.15
	c-1.38,0.77-2.91,1.35-4.52,1.26c-4.49-0.1-8.92-0.91-13.32-1.7c-1.63-0.33-3.37-0.38-4.96,0.06c0.4,1.46,0.73,2.95,0.88,4.47
	c0.28,3.09,1.14,6.2,0.44,9.31c-0.24,3.33-1.58,6.46-1.83,9.79c2.37,0.66,4.83,0.81,7.28,0.74c1.84-0.07,3.47,0.86,5.15,1.48
	c1.27,0.52,2.65,0.07,3.96,0.01c2.07-0.26,4.04,0.54,6.02,0.97c1.59,0.41,3.28,0.66,4.68,1.57c2.1,1.36,3.54,3.49,5.49,5.04
	c0.73,0.61,1.74,0.46,2.62,0.53c1.88-0.02,3.75,0.22,5.63,0.18c2.36-0.2,4.39-1.72,6.76-1.86c2-0.21,3.93,0.46,5.81,1.07
	c2.33,0.78,4.84,0.88,7.08,1.92c3.41,1.53,6.88,2.98,10.05,4.97c2.2,1.4,3.48,3.84,5.69,5.22c2.04,1.07,4.21-0.38,6.33-0.32
	c7.16,0.75,14.06,3.63,19.68,8.11c1.76-2.21,3.71-4.39,6.31-5.61c2.63-1.41,5.67-1.55,8.52-2.2c3.18-0.95,6.4,1.35,9.54,0.06
	c2.76-1.63,4.34-4.64,7.01-6.39c2.5-1.62,5.2-2.94,7.97-4.06c6.43-2.73,13.68-2.21,20.39-0.93c3.52,0.64,6.63-1.47,9.29-3.47
	c4.1-3.13,8.52-6.02,13.63-7.17c3.35-1.06,6.79,0.12,10.2,0.06c2.36-0.03,4.74,0.15,7.1-0.05c1.1-0.05,1.35-1.34,1.45-2.21
	c0.31-3.68,0-7.36-0.22-11.03c-0.23-3.22,0.55-6.37,0.96-9.54c-2.4,0.79-4.81,1.69-7.37,1.84c-3.85,0.25-7.7,0.71-11.56,0.54
	c-2.84-0.02-5.24-1.74-7.75-2.85c-2.21-0.97-3.07-3.4-4.37-5.26c-1.87-2.7-2.49-5.97-3.41-9.06c-0.84-2.54,0.34-5.15-0.12-7.72
	c-0.39-2.13-0.1-4.3,0.41-6.39c0.62-3.06,2.59-5.56,4.37-8.03c1.56-2.17,3.9-3.53,6.13-4.9c3.71-2.43,8.03-3.95,12.45-4.33
	c2.82-0.16,5.27-1.99,8.14-1.84c3.39,0.05,6.8-0.2,10.17,0.34c5.88,1,11.98,1.23,17.51,3.66c1.14,0.33,2.38,1.45,3.57,0.68
	c1.94-1.15,2.39-3.54,3.29-5.43c1.76-4.09,3.93-8.5,8.07-10.62c3.3-1.25,6.73-2.18,10.22-2.72c1.92-0.34,3.9-1.07,5.22-2.56
	c0.66-1.98,0.38-4.17-0.27-6.11c-1.49-4.41-3.41-8.65-4.63-13.15c-1.14-3.17-0.76-6.57-0.84-9.86c-0.08-3.24,1.14-6.3,2.38-9.23
	c2.27-4.96,6.52-8.52,10.36-12.22c1.22-1.17,2.8-2.31,2.99-4.13c0.28-3.21-1.3-6.38-3.68-8.48c-3.7-3.43-6.38-7.74-9.38-11.74
	c-4-6.33-6.39-13.97-5.43-21.49c0.92-2.72,1.23-5.56,1.76-8.36c1.15-3.47,2.12-7,3.45-10.4c0.87-2.43,1.22-5.17,0.49-7.66
	c-2.02-3.22-5.68-4.81-8.24-7.52c-3.29-3.44-7.05-6.49-9.83-10.38c-3.03-5.32-6.09-10.94-6.57-17.16c-0.27-2.59-1.14-5.08-1.26-7.68
	c-0.17-2.57,0.11-5.13-0.07-7.69c0-1-0.59-1.84-1.23-2.56c-4.32-4.65-9.06-8.89-13.37-13.55c-3.77-4.35-7.06-9.07-10.17-13.91
	c-1.75-2.74-2.69-5.9-3.99-8.86c-1.13-2.65-2.15-5.4-2.34-8.3c-0.21-3.07-1.62-5.91-1.62-8.99c-0.13-2.55,0.27-5.09,0.12-7.63
	c-0.09-1.55-1.62-2.36-2.78-3.1c-4.65-2.64-9.75-4.7-13.64-8.47c-4.67-5.12-8.1-11.26-10.69-17.65c-1.86-3.9-2.54-8.2-3.47-12.37
	c-0.44-1.84-0.39-3.98-1.77-5.42c-2.45-2.57-6.05-3.45-8.76-5.67c-1.41-1.15-2.8-2.32-4.22-3.45c-1.82-1.43-2.95-3.48-4.33-5.29
	c-1.97-2.56-3.34-5.51-4.63-8.45c-1.39-3.39-2.84-6.79-3.57-10.4c-0.49-2.44-1.15-4.85-1.6-7.29c-0.5-2.83,0.4-5.71-0.24-8.51
	c-0.23-1.26-1.61-1.68-2.61-2.17c-6.37-2.49-11.67-7.12-15.91-12.39c-1.84-3.08-4.63-5.43-6.48-8.49
	c-3.23-4.84-4.64-10.59-7.43-15.66c-0.72-1.23-1.96-1.99-3.07-2.82C175.35,28.02,173.62,33.88,170.72,39.15 M175.38,14.95
	c0.67-1.31,1.4-2.92,2.96-3.32c1.49-0.14,3.07,0.46,3.98,1.69c1.6,2.08,2.39,4.63,3.67,6.9c1.49,2.66,2.13,5.69,3.7,8.32
	c1.22,2.09,2.46,4.19,3.93,6.12c3.03,3.82,5.85,7.89,9.59,11.07c3.27,2.65,6.94,4.78,10.8,6.44c1.63,0.77,3.72,1.67,3.93,3.73
	c0.33,4.12-0.13,8.26,0.1,12.39c0.11,1.55,0.85,2.95,1.34,4.4c0.86,2.34,0.9,4.9,1.97,7.17c0.93,2.05,1.64,4.19,2.55,6.26
	c3.01,5.78,7.67,10.66,13.22,14.06c2.8,1.8,5.89,3.34,8.02,5.98c0.93,1.08,1.23,2.5,1.48,3.86c0.44,2.6,1.43,5.08,1.86,7.68
	c0.86,4.98,2.95,9.63,5.09,14.16c3.15,6.4,8.17,12.09,14.79,15c3.59,1.92,8.11,3.45,9.77,7.52c0.8,4.28-0.33,8.71,0.49,13
	c0.49,1.99,1.24,3.92,1.47,5.97c0.46,3.52,1.45,6.97,2.88,10.22c2.42,5.05,4.99,10.12,8.69,14.38c4.16,5.54,9.18,10.34,14.09,15.19
	c2.12,1.99,4.85,3.71,5.76,6.64c0.44,2.31,0.07,4.67,0.11,7.01c-0.12,3.86,1.49,7.49,1.71,11.32c0.17,2.83,0.98,5.55,2.03,8.17
	c2.18,6.19,6.74,11.11,11.32,15.63c3.5,3.41,7.87,5.84,11.06,9.59c1.6,1.83,1.17,4.45,1.23,6.69c0.12,3.4-2.06,6.2-2.77,9.41
	c-0.4,1.78-0.87,3.56-1.58,5.25c-1.03,2.4-0.62,5.1-1.46,7.55c-1.27,4.24-0.84,8.78,0.61,12.91c1.32,5.9,5.13,10.72,8.74,15.39
	c2.46,2.82,5.23,5.35,7.57,8.27c2.05,2.38,2.03,5.85,1.4,8.75c-1.9,3.12-4.99,5.28-7.63,7.73c-1.95,1.75-3.44,3.93-4.89,6.1
	c-1.51,2.16-2.06,4.79-2.83,7.26c-0.66,2.1-0.37,4.32-0.4,6.49c0.02,2.46-0.29,4.98,0.48,7.38c0.73,2.34,0.93,4.85,2.06,7.06
	c1.2,2.36,2.14,4.83,3.26,7.23c0.84,1.79,1,3.99,0.15,5.8c-1.57,2.1-4.22,3.2-6.79,3.39c-3.03,0.19-5.91,1.21-8.72,2.31
	c-3.39,1.34-5.39,4.61-7.23,7.56c-1.86,3.01-2.11,7.1-5.15,9.3c-1.52,1.26-3.59,0.95-5.36,0.53c-2.51-0.55-4.8-1.85-7.35-2.26
	c-1.68-0.27-3.39-0.35-5.02-0.85c-2.44-0.7-4.68-2.15-7.27-2.27c-4.39-0.12-8.89-0.23-13.08,1.29c-5.13,0.95-10.43,1.96-14.88,4.85
	c-3.33,2-6.39,4.66-8.22,8.13c-1.24,2.46-2.84,4.94-2.81,7.81c-0.01,2.74-0.3,5.66,0.99,8.2c1.47,2.95,1.97,6.57,4.75,8.7
	c4.15,4.19,10.49,3.98,15.95,3.8c3.9-0.04,6.69-3.49,10.48-3.92c1.71,0.53,3.32,1.48,4.6,2.72c0.48,1.29,0.39,2.72,0.33,4.08
	c-0.1,2.09-1.89,3.65-1.94,5.76c-0.12,2.88,0.09,5.77-0.06,8.64c-0.11,1.78,0.13,3.55,0.47,5.29c0.61,2.76-0.77,5.41-1.48,8.01
	c-2.69-0.32-5.4-0.28-8.09-0.39c-2.69-0.11-5.33-1.17-8.04-0.66c-4.59,0.85-9.05,2.56-12.85,5.3c-2.73,1.71-5.07,4.04-8.01,5.4
	c-3.08,0.96-6.39,0.45-9.52,0.02c-2.24-0.35-4.51-0.02-6.76-0.1c-1.97-0.03-4-0.31-5.89,0.37c-2.16,0.73-4.24,1.66-6.38,2.44
	c-3.64,1.28-6.52,4-9.02,6.85c-1.39,1.5-2.95,3.21-5.12,3.41c-2.3,0.37-4.46-0.73-6.72-0.87c-4.72,0.28-9.31,1.94-13.25,4.54
	c-1.28,0.88-2.09,2.24-2.9,3.54c-1.42-0.02-2.85-0.03-4.27-0.03c-0.91-1.75-1.89-3.63-3.69-4.61c-3.43-1.9-7.41-2.24-11.14-3.26
	c-2.71-0.78-5.31,0.83-8.01,0.71c-1.48-0.04-2.62-1.09-3.6-2.07c-2.29-2.35-4.28-5.12-7.25-6.67c-1.85-0.94-3.76-1.75-5.65-2.62
	c-2.19-1.02-4.6-1.33-6.93-1.86c-1.79-0.4-3.59-0.89-5.43-0.85c-2.63,0.06-5,1.56-7.65,1.5c-1.83-0.01-3.65,0.13-5.42,0.57
	c-0.71,0.09-1.53,0.47-2.18-0.02c-2.05-1.27-3.32-3.4-5.07-5.01c-1.37-1.27-3.24-1.72-4.98-2.23c-2.09-0.56-4.18-1.36-6.39-1.23
	c-1.39,0.03-2.77,0.32-4.16,0.23c-2.27-0.33-3.98-2.52-6.4-2.14c-2.83,0.33-5.68,0.3-8.49-0.19c-0.98-2.01-2.37-4.11-1.82-6.45
	c0.89-4.65,2.56-9.33,1.76-14.12c-0.33-3.33-2.93-6.05-2.77-9.47c0.27-1.82,1.43-3.34,2.26-4.94c5.7-0.51,10.62,3.2,16.23,3.4
	c2.58,0.13,5.31,0.2,7.71-0.95c2.01-0.96,3.97-2.06,5.78-3.36c1.94-1.41,2.74-3.78,3.85-5.8c1.71-3.03,1.75-6.67,1.35-10.03
	c-0.98-4.43-2.76-8.91-6.24-11.97c-3.25-2.71-6.97-4.93-11.01-6.23c-2.07-0.65-4.01-1.8-6.2-1.98c-6.44-0.12-12.91-1.66-19.33-0.53
	c-4.62,1.42-9.44,2.23-13.88,4.21c-2.55,1.08-5.99,1.85-8.26-0.21c-1.69-2.26-2.15-5.17-3.42-7.66c-1.83-3.65-3.87-7.71-7.81-9.44
	c-3.64-1.42-7.59-1.71-11.37-2.6c-1.4-0.49-3.05-1.03-3.91-2.29c-0.59-2.89-0.65-6.1,0.72-8.79c1.94-4.41,3.59-8.95,4.76-13.64
	c1.4-4.28,0.64-8.86-0.66-13.05c-0.86-3.91-2.95-7.42-5.43-10.51c-2.01-2.48-4.6-4.39-6.9-6.58c-0.81-0.83-1.75-1.72-1.83-2.95
	c-0.19-2.4-0.16-4.81-0.04-7.21c0.02-1.38,1.04-2.41,1.89-3.37c1.49-1.56,2.96-3.14,4.26-4.87c2.5-3.41,5.72-6.28,7.66-10.09
	c2.6-4.46,3.91-9.57,4.28-14.69c-0.32-2.92-1.05-5.79-1.27-8.73c-1.02-4.54-2.06-9.11-3.84-13.42c-0.79-3.31-2.1-6.92-0.74-10.25
	c0.74-2.28,2.61-3.87,4.33-5.42c2.58-2.23,5.06-4.58,7.77-6.66c2.66-2,4.43-4.88,6.52-7.41c2.21-3.09,4.3-6.4,5.16-10.14
	c0.55-2.25,1.67-4.39,1.63-6.75c0.02-2.1,0.14-4.19,0.36-6.27c0.27-2.63-0.07-5.29,0.31-7.91c0.51-2.71,1.71-5.33,3.57-7.38
	c3.38-3.66,7.48-6.61,10.64-10.48c1.46-1.75,3.17-3.26,4.71-4.92c6.77-8.33,12.46-18.01,13.93-28.8c0.62-4.48-0.25-9.07,0.85-13.5
	c0.52-2.07,0.65-4.44,2.23-6.03c1.91-1.94,4.44-3.07,6.83-4.29c3.64-1.73,7.18-3.86,9.85-6.93c5.99-6.34,9.16-14.71,11.46-22.98
	c0.94-4.39,0.99-9.59,4.58-12.83c3.06-3.23,7.37-4.73,10.74-7.55c6.22-4.98,9.98-12.33,12.55-19.72c1.08-2.74,1.17-5.73,1.92-8.57
	c1.08-4.24,0.15-8.64,0.6-12.94c0.1-1.6,1.63-2.49,2.85-3.25c3.29-1.82,6.88-3.15,9.79-5.61c3.89-3.32,7.43-7.07,10.38-11.24
	c1.47-2.06,3.2-3.93,4.42-6.16C170.97,24.81,173.09,19.85,175.38,14.95"/>
</svg>
